<svg        xmlns="http://www.w3.org/2000/svg"         xmlns:xlink="http://www.w3.org/1999/xlink"        viewBox="0 0 375 375"        stroke="red"        fill="grey"        >        <path            fill="black"            stroke="none"            filter="url(#blurMe)"            d="M 177,17                c 50,-20 145,45 145,75                c 0,0 0,0 0,180                c 0,30 0,0 -145,75                c -50,20 -145,-45 -145,-75                c 0,0 0,0 0,-180                c 0,-30 0,0 145,-75" />        <path        fill="#50656e"        stroke="none"        d="M 175,15            c 50,-20 145,45 145,75            c 0,0 0,0 0,180            c 0,30 0,0 -145,75            c -50,20 -145,-45 -145,-75            c 0,0 0,0 0,-180            c 0,-30 0,0 145,-75" />        <filter id="blurMe">            <feGaussianBlur in="SourceGraphic" stdDeviation="5" />        </filter>    </svg>